<?xml version="1.0" standalone="no"?>
<!DOCTYPE svg PUBLIC "-//W3C//DTD SVG 20010904//EN"
 "http://www.w3.org/TR/2001/REC-SVG-20010904/DTD/svg10.dtd">
<svg version="1.0" xmlns="http://www.w3.org/2000/svg"
 width="247.000000pt" height="247.000000pt" viewBox="0 0 247.000000 247.000000"
 preserveAspectRatio="xMidYMid meet">
<metadata>
Created by potrace 1.14, written by Peter Selinger 2001-2017
</metadata>
<g transform="translate(0.000000,247.000000) scale(0.100000,-0.100000)"
fill="#000000" stroke="none">
<path d="M2145 2208 c-41 -118 -77 -170 -132 -193 -17 -7 -39 -25 -48 -39 -23
-34 -51 -33 -69 2 -20 39 -37 51 -91 67 l-45 14 35 -46 c19 -25 35 -50 35 -55
0 -13 -66 18 -133 62 -33 22 -62 38 -64 36 -3 -2 5 -26 16 -51 12 -26 21 -48
21 -49 0 0 -39 0 -86 2 -155 6 -318 -24 -574 -105 -419 -132 -639 -251 -841
-452 -137 -138 -164 -190 -163 -311 0 -75 3 -90 28 -126 24 -37 26 -47 20 -93
-6 -45 -4 -51 11 -51 10 0 37 20 61 44 25 24 46 41 47 37 8 -15 7 -89 -1 -111
-11 -30 -5 -50 14 -50 8 0 39 20 69 44 108 89 429 289 577 362 49 23 175 70
281 104 524 169 595 196 717 280 74 52 113 88 138 131 12 19 40 52 63 73 44
42 45 45 24 159 -8 39 13 97 45 127 78 76 116 158 98 211 -15 43 -32 35 -53
-23z"/>
<path d="M2123 1569 c-46 -29 -68 -91 -51 -141 12 -33 72 -88 96 -88 9 0 30 7
47 16 24 12 30 13 34 2 2 -7 17 -25 32 -40 34 -35 97 -38 146 -9 39 24 47 49
34 99 -19 70 -85 104 -157 79 -16 -6 -23 -1 -37 27 -30 65 -92 88 -144 55z"/>
<path d="M1280 1202 c-78 -34 -111 -111 -73 -168 16 -25 16 -26 -3 -22 -28 7
-73 -19 -84 -48 -23 -58 -6 -120 38 -146 69 -40 154 -23 170 34 10 37 5 95 -9
104 -17 10 -9 23 22 29 37 8 95 64 101 98 15 76 -88 152 -162 119z"/>
<path d="M1815 1074 c-44 -15 -59 -27 -86 -71 -14 -22 -19 -43 -16 -61 4 -21
-1 -32 -20 -48 l-26 -21 -42 44 c-31 32 -49 43 -72 43 -43 0 -78 -32 -93 -83
-10 -38 -9 -49 4 -75 34 -65 99 -90 150 -56 23 14 25 14 30 -4 12 -37 97 -59
154 -39 12 5 22 5 20 0 -6 -23 17 -75 44 -98 50 -42 159 -28 188 24 27 52 -5
142 -58 162 -28 11 -84 8 -114 -5 -15 -7 -18 -3 -18 27 0 30 6 39 34 57 41 25
76 77 76 113 0 36 -53 94 -90 99 -16 3 -46 -1 -65 -8z"/>
<path d="M2325 918 c-39 -10 -79 -69 -78 -114 2 -68 82 -135 137 -115 13 6 36
25 50 44 39 52 33 107 -18 158 -32 32 -52 38 -91 27z"/>
<path d="M563 810 c-25 -10 -42 -38 -45 -74 -2 -24 -6 -26 -46 -26 -37 0 -50
-6 -78 -34 -19 -19 -34 -42 -35 -52 0 -11 -2 -29 -5 -42 -3 -16 5 -32 25 -53
25 -24 38 -29 79 -29 40 0 54 5 76 26 14 15 30 41 34 58 7 25 13 31 33 29 83
-7 122 18 132 83 13 83 -85 148 -170 114z"/>
<path d="M1417 614 c-15 -8 -32 -26 -37 -40 -7 -16 -17 -24 -34 -24 -62 0
-108 -45 -122 -118 -15 -77 40 -121 142 -114 25 2 72 47 85 80 6 16 17 22 39
22 68 0 120 39 120 90 0 36 -31 90 -61 105 -36 19 -96 18 -132 -1z"/>
<path d="M1679 467 c-49 -32 -69 -78 -57 -125 19 -75 104 -134 161 -113 36 14
77 72 77 110 0 57 -44 121 -98 142 -34 13 -46 11 -83 -14z"/>
</g>
</svg>
